<mxfile host="65bd71144e">
    <diagram id="eByr2vHyJb8eP3QuUkfj" name="Page-1">
        <mxGraphModel dx="1208" dy="697" grid="1" gridSize="10" guides="1" tooltips="1" connect="1" arrows="1" fold="1" page="1" pageScale="1" pageWidth="850" pageHeight="1100" math="0" shadow="0">
            <root>
                <mxCell id="0"/>
                <mxCell id="1" parent="0"/>
                <mxCell id="2" value="WELCOME TO YOUR SEARCH BOARD" style="swimlane;swimlaneFillColor=default;align=center;fontSize=13;startSize=50;" vertex="1" parent="1">
                    <mxGeometry x="120" y="40" width="560" height="290" as="geometry"/>
                </mxCell>
                <mxCell id="3" value="Search for position I applied for here:" style="text;strokeColor=none;fillColor=none;html=1;fontSize=12;fontStyle=1;verticalAlign=middle;align=center;strokeWidth=0;" vertex="1" parent="2">
                    <mxGeometry x="70" y="80" width="100" height="50" as="geometry"/>
                </mxCell>
                <mxCell id="5" value="Search by position name" style="rounded=0;whiteSpace=wrap;html=1;fontSize=11;strokeWidth=2;" vertex="1" parent="2">
                    <mxGeometry x="240" y="90" width="190" height="30" as="geometry"/>
                </mxCell>
                <mxCell id="7" value="&lt;ul style=&quot;font-size: 19px;&quot;&gt;&lt;li style=&quot;font-size: 19px;&quot;&gt;Job Results 1&lt;/li&gt;&lt;li style=&quot;font-size: 19px;&quot;&gt;Job Results 2&lt;/li&gt;&lt;li style=&quot;font-size: 19px;&quot;&gt;Job Results 3&lt;/li&gt;&lt;/ul&gt;" style="text;strokeColor=none;fillColor=none;html=1;whiteSpace=wrap;verticalAlign=middle;overflow=hidden;fontSize=19;" vertex="1" parent="2">
                    <mxGeometry y="140" width="220" height="140" as="geometry"/>
                </mxCell>
                <mxCell id="8" value="&lt;u&gt;View Your Job Board&lt;/u&gt;" style="text;html=1;strokeColor=default;fillColor=none;align=center;verticalAlign=middle;whiteSpace=wrap;rounded=0;fontSize=12;strokeWidth=2;" vertex="1" parent="2">
                    <mxGeometry x="430" y="10" width="120" height="30" as="geometry"/>
                </mxCell>
                <mxCell id="26" value="&lt;font style=&quot;font-size: 15px&quot;&gt;Add to board&lt;/font&gt;" style="rounded=0;whiteSpace=wrap;html=1;fontSize=19;strokeWidth=2;" vertex="1" parent="2">
                    <mxGeometry x="170" y="170" width="120" height="20" as="geometry"/>
                </mxCell>
                <mxCell id="28" value="&lt;font style=&quot;font-size: 15px&quot;&gt;Add to board&lt;/font&gt;" style="rounded=0;whiteSpace=wrap;html=1;fontSize=19;strokeWidth=2;" vertex="1" parent="2">
                    <mxGeometry x="170" y="230" width="120" height="20" as="geometry"/>
                </mxCell>
                <mxCell id="27" value="&lt;font style=&quot;font-size: 15px&quot;&gt;Add to board&lt;/font&gt;" style="rounded=0;whiteSpace=wrap;html=1;fontSize=19;strokeWidth=2;" vertex="1" parent="2">
                    <mxGeometry x="170" y="200" width="120" height="20" as="geometry"/>
                </mxCell>
                <mxCell id="31" value="WELCOME TO YOUR JOB BOARD" style="swimlane;swimlaneFillColor=default;align=center;fontSize=13;startSize=50;" vertex="1" parent="1">
                    <mxGeometry x="130" y="430" width="560" height="280" as="geometry"/>
                </mxCell>
                <mxCell id="35" value="&lt;u style=&quot;font-size: 10px;&quot;&gt;Go back to search board&lt;/u&gt;" style="text;html=1;strokeColor=default;fillColor=none;align=center;verticalAlign=middle;whiteSpace=wrap;rounded=0;fontSize=10;strokeWidth=2;" vertex="1" parent="31">
                    <mxGeometry x="430" y="10" width="120" height="30" as="geometry"/>
                </mxCell>
                <mxCell id="41" value="Here are the list of jobs you are currently tracking:" style="shape=table;startSize=30;container=1;collapsible=0;childLayout=tableLayout;fontStyle=1;align=left;pointerEvents=1;fontSize=13;strokeColor=default;strokeWidth=2;" vertex="1" parent="31">
                    <mxGeometry y="50" width="560" height="230" as="geometry"/>
                </mxCell>
                <mxCell id="42" value="" style="shape=partialRectangle;html=1;whiteSpace=wrap;collapsible=0;dropTarget=0;pointerEvents=0;fillColor=none;top=0;left=0;bottom=0;right=0;points=[[0,0.5],[1,0.5]];portConstraint=eastwest;fontSize=13;strokeColor=default;strokeWidth=2;" vertex="1" parent="41">
                    <mxGeometry y="30" width="560" height="40" as="geometry"/>
                </mxCell>
                <mxCell id="43" value="&lt;font style=&quot;font-size: 11px&quot;&gt;JOB POSITION&lt;/font&gt;" style="shape=partialRectangle;html=1;whiteSpace=wrap;connectable=0;fillColor=none;top=0;left=0;bottom=0;right=0;overflow=hidden;pointerEvents=1;fontSize=13;strokeColor=default;strokeWidth=2;" vertex="1" parent="42">
                    <mxGeometry width="112" height="40" as="geometry">
                        <mxRectangle width="112" height="40" as="alternateBounds"/>
                    </mxGeometry>
                </mxCell>
                <mxCell id="44" value="&lt;font style=&quot;font-size: 11px&quot;&gt;COMPANY&lt;/font&gt;" style="shape=partialRectangle;html=1;whiteSpace=wrap;connectable=0;fillColor=none;top=0;left=0;bottom=0;right=0;overflow=hidden;pointerEvents=1;fontSize=13;strokeColor=default;strokeWidth=2;" vertex="1" parent="42">
                    <mxGeometry x="112" width="112" height="40" as="geometry">
                        <mxRectangle width="112" height="40" as="alternateBounds"/>
                    </mxGeometry>
                </mxCell>
                <mxCell id="45" value="&lt;font style=&quot;font-size: 11px&quot;&gt;LOCATION&lt;/font&gt;" style="shape=partialRectangle;html=1;whiteSpace=wrap;connectable=0;fillColor=none;top=0;left=0;bottom=0;right=0;overflow=hidden;pointerEvents=1;fontSize=13;strokeColor=default;strokeWidth=2;" vertex="1" parent="42">
                    <mxGeometry x="224" width="112" height="40" as="geometry">
                        <mxRectangle width="112" height="40" as="alternateBounds"/>
                    </mxGeometry>
                </mxCell>
                <mxCell id="57" value="&lt;font style=&quot;font-size: 11px&quot;&gt;DATE APPLIED&lt;/font&gt;" style="shape=partialRectangle;html=1;whiteSpace=wrap;connectable=0;fillColor=none;top=0;left=0;bottom=0;right=0;overflow=hidden;pointerEvents=1;fontSize=13;strokeColor=default;strokeWidth=2;" vertex="1" parent="42">
                    <mxGeometry x="336" width="112" height="40" as="geometry">
                        <mxRectangle width="112" height="40" as="alternateBounds"/>
                    </mxGeometry>
                </mxCell>
                <mxCell id="54" value="&lt;font style=&quot;font-size: 11px&quot;&gt;NOTES&lt;/font&gt;" style="shape=partialRectangle;html=1;whiteSpace=wrap;connectable=0;fillColor=none;top=0;left=0;bottom=0;right=0;overflow=hidden;pointerEvents=1;fontSize=13;strokeColor=default;strokeWidth=2;" vertex="1" parent="42">
                    <mxGeometry x="448" width="112" height="40" as="geometry">
                        <mxRectangle width="112" height="40" as="alternateBounds"/>
                    </mxGeometry>
                </mxCell>
                <mxCell id="46" value="" style="shape=partialRectangle;html=1;whiteSpace=wrap;collapsible=0;dropTarget=0;pointerEvents=0;fillColor=none;top=0;left=0;bottom=0;right=0;points=[[0,0.5],[1,0.5]];portConstraint=eastwest;fontSize=13;strokeColor=default;strokeWidth=2;" vertex="1" parent="41">
                    <mxGeometry y="70" width="560" height="40" as="geometry"/>
                </mxCell>
                <mxCell id="47" value="" style="shape=partialRectangle;html=1;whiteSpace=wrap;connectable=0;fillColor=none;top=0;left=0;bottom=0;right=0;overflow=hidden;pointerEvents=1;fontSize=13;strokeColor=default;strokeWidth=2;" vertex="1" parent="46">
                    <mxGeometry width="112" height="40" as="geometry">
                        <mxRectangle width="112" height="40" as="alternateBounds"/>
                    </mxGeometry>
                </mxCell>
                <mxCell id="48" value="" style="shape=partialRectangle;html=1;whiteSpace=wrap;connectable=0;fillColor=none;top=0;left=0;bottom=0;right=0;overflow=hidden;pointerEvents=1;fontSize=13;strokeColor=default;strokeWidth=2;" vertex="1" parent="46">
                    <mxGeometry x="112" width="112" height="40" as="geometry">
                        <mxRectangle width="112" height="40" as="alternateBounds"/>
                    </mxGeometry>
                </mxCell>
                <mxCell id="49" value="" style="shape=partialRectangle;html=1;whiteSpace=wrap;connectable=0;fillColor=none;top=0;left=0;bottom=0;right=0;overflow=hidden;pointerEvents=1;fontSize=13;strokeColor=default;strokeWidth=2;" vertex="1" parent="46">
                    <mxGeometry x="224" width="112" height="40" as="geometry">
                        <mxRectangle width="112" height="40" as="alternateBounds"/>
                    </mxGeometry>
                </mxCell>
                <mxCell id="58" style="shape=partialRectangle;html=1;whiteSpace=wrap;connectable=0;fillColor=none;top=0;left=0;bottom=0;right=0;overflow=hidden;pointerEvents=1;fontSize=13;strokeColor=default;strokeWidth=2;" vertex="1" parent="46">
                    <mxGeometry x="336" width="112" height="40" as="geometry">
                        <mxRectangle width="112" height="40" as="alternateBounds"/>
                    </mxGeometry>
                </mxCell>
                <mxCell id="55" style="shape=partialRectangle;html=1;whiteSpace=wrap;connectable=0;fillColor=none;top=0;left=0;bottom=0;right=0;overflow=hidden;pointerEvents=1;fontSize=13;strokeColor=default;strokeWidth=2;" vertex="1" parent="46">
                    <mxGeometry x="448" width="112" height="40" as="geometry">
                        <mxRectangle width="112" height="40" as="alternateBounds"/>
                    </mxGeometry>
                </mxCell>
                <mxCell id="50" value="" style="shape=partialRectangle;html=1;whiteSpace=wrap;collapsible=0;dropTarget=0;pointerEvents=0;fillColor=none;top=0;left=0;bottom=0;right=0;points=[[0,0.5],[1,0.5]];portConstraint=eastwest;fontSize=13;strokeColor=default;strokeWidth=2;" vertex="1" parent="41">
                    <mxGeometry y="110" width="560" height="40" as="geometry"/>
                </mxCell>
                <mxCell id="51" value="" style="shape=partialRectangle;html=1;whiteSpace=wrap;connectable=0;fillColor=none;top=0;left=0;bottom=0;right=0;overflow=hidden;pointerEvents=1;fontSize=13;strokeColor=default;strokeWidth=2;" vertex="1" parent="50">
                    <mxGeometry width="112" height="40" as="geometry">
                        <mxRectangle width="112" height="40" as="alternateBounds"/>
                    </mxGeometry>
                </mxCell>
                <mxCell id="52" value="" style="shape=partialRectangle;html=1;whiteSpace=wrap;connectable=0;fillColor=none;top=0;left=0;bottom=0;right=0;overflow=hidden;pointerEvents=1;fontSize=13;strokeColor=default;strokeWidth=2;" vertex="1" parent="50">
                    <mxGeometry x="112" width="112" height="40" as="geometry">
                        <mxRectangle width="112" height="40" as="alternateBounds"/>
                    </mxGeometry>
                </mxCell>
                <mxCell id="53" value="" style="shape=partialRectangle;html=1;whiteSpace=wrap;connectable=0;fillColor=none;top=0;left=0;bottom=0;right=0;overflow=hidden;pointerEvents=1;fontSize=13;strokeColor=default;strokeWidth=2;" vertex="1" parent="50">
                    <mxGeometry x="224" width="112" height="40" as="geometry">
                        <mxRectangle width="112" height="40" as="alternateBounds"/>
                    </mxGeometry>
                </mxCell>
                <mxCell id="59" style="shape=partialRectangle;html=1;whiteSpace=wrap;connectable=0;fillColor=none;top=0;left=0;bottom=0;right=0;overflow=hidden;pointerEvents=1;fontSize=13;strokeColor=default;strokeWidth=2;" vertex="1" parent="50">
                    <mxGeometry x="336" width="112" height="40" as="geometry">
                        <mxRectangle width="112" height="40" as="alternateBounds"/>
                    </mxGeometry>
                </mxCell>
                <mxCell id="56" style="shape=partialRectangle;html=1;whiteSpace=wrap;connectable=0;fillColor=none;top=0;left=0;bottom=0;right=0;overflow=hidden;pointerEvents=1;fontSize=13;strokeColor=default;strokeWidth=2;" vertex="1" parent="50">
                    <mxGeometry x="448" width="112" height="40" as="geometry">
                        <mxRectangle width="112" height="40" as="alternateBounds"/>
                    </mxGeometry>
                </mxCell>
                <mxCell id="66" style="shape=partialRectangle;html=1;whiteSpace=wrap;collapsible=0;dropTarget=0;pointerEvents=0;fillColor=none;top=0;left=0;bottom=0;right=0;points=[[0,0.5],[1,0.5]];portConstraint=eastwest;fontSize=13;strokeColor=default;strokeWidth=2;" vertex="1" parent="41">
                    <mxGeometry y="150" width="560" height="40" as="geometry"/>
                </mxCell>
                <mxCell id="67" style="shape=partialRectangle;html=1;whiteSpace=wrap;connectable=0;fillColor=none;top=0;left=0;bottom=0;right=0;overflow=hidden;pointerEvents=1;fontSize=13;strokeColor=default;strokeWidth=2;" vertex="1" parent="66">
                    <mxGeometry width="112" height="40" as="geometry">
                        <mxRectangle width="112" height="40" as="alternateBounds"/>
                    </mxGeometry>
                </mxCell>
                <mxCell id="68" style="shape=partialRectangle;html=1;whiteSpace=wrap;connectable=0;fillColor=none;top=0;left=0;bottom=0;right=0;overflow=hidden;pointerEvents=1;fontSize=13;strokeColor=default;strokeWidth=2;" vertex="1" parent="66">
                    <mxGeometry x="112" width="112" height="40" as="geometry">
                        <mxRectangle width="112" height="40" as="alternateBounds"/>
                    </mxGeometry>
                </mxCell>
                <mxCell id="69" style="shape=partialRectangle;html=1;whiteSpace=wrap;connectable=0;fillColor=none;top=0;left=0;bottom=0;right=0;overflow=hidden;pointerEvents=1;fontSize=13;strokeColor=default;strokeWidth=2;" vertex="1" parent="66">
                    <mxGeometry x="224" width="112" height="40" as="geometry">
                        <mxRectangle width="112" height="40" as="alternateBounds"/>
                    </mxGeometry>
                </mxCell>
                <mxCell id="70" style="shape=partialRectangle;html=1;whiteSpace=wrap;connectable=0;fillColor=none;top=0;left=0;bottom=0;right=0;overflow=hidden;pointerEvents=1;fontSize=13;strokeColor=default;strokeWidth=2;" vertex="1" parent="66">
                    <mxGeometry x="336" width="112" height="40" as="geometry">
                        <mxRectangle width="112" height="40" as="alternateBounds"/>
                    </mxGeometry>
                </mxCell>
                <mxCell id="71" style="shape=partialRectangle;html=1;whiteSpace=wrap;connectable=0;fillColor=none;top=0;left=0;bottom=0;right=0;overflow=hidden;pointerEvents=1;fontSize=13;strokeColor=default;strokeWidth=2;" vertex="1" parent="66">
                    <mxGeometry x="448" width="112" height="40" as="geometry">
                        <mxRectangle width="112" height="40" as="alternateBounds"/>
                    </mxGeometry>
                </mxCell>
                <mxCell id="60" style="shape=partialRectangle;html=1;whiteSpace=wrap;collapsible=0;dropTarget=0;pointerEvents=0;fillColor=none;top=0;left=0;bottom=0;right=0;points=[[0,0.5],[1,0.5]];portConstraint=eastwest;fontSize=13;strokeColor=default;strokeWidth=2;" vertex="1" parent="41">
                    <mxGeometry y="190" width="560" height="40" as="geometry"/>
                </mxCell>
                <mxCell id="61" style="shape=partialRectangle;html=1;whiteSpace=wrap;connectable=0;fillColor=none;top=0;left=0;bottom=0;right=0;overflow=hidden;pointerEvents=1;fontSize=13;strokeColor=default;strokeWidth=2;" vertex="1" parent="60">
                    <mxGeometry width="112" height="40" as="geometry">
                        <mxRectangle width="112" height="40" as="alternateBounds"/>
                    </mxGeometry>
                </mxCell>
                <mxCell id="62" style="shape=partialRectangle;html=1;whiteSpace=wrap;connectable=0;fillColor=none;top=0;left=0;bottom=0;right=0;overflow=hidden;pointerEvents=1;fontSize=13;strokeColor=default;strokeWidth=2;" vertex="1" parent="60">
                    <mxGeometry x="112" width="112" height="40" as="geometry">
                        <mxRectangle width="112" height="40" as="alternateBounds"/>
                    </mxGeometry>
                </mxCell>
                <mxCell id="63" style="shape=partialRectangle;html=1;whiteSpace=wrap;connectable=0;fillColor=none;top=0;left=0;bottom=0;right=0;overflow=hidden;pointerEvents=1;fontSize=13;strokeColor=default;strokeWidth=2;" vertex="1" parent="60">
                    <mxGeometry x="224" width="112" height="40" as="geometry">
                        <mxRectangle width="112" height="40" as="alternateBounds"/>
                    </mxGeometry>
                </mxCell>
                <mxCell id="64" style="shape=partialRectangle;html=1;whiteSpace=wrap;connectable=0;fillColor=none;top=0;left=0;bottom=0;right=0;overflow=hidden;pointerEvents=1;fontSize=13;strokeColor=default;strokeWidth=2;" vertex="1" parent="60">
                    <mxGeometry x="336" width="112" height="40" as="geometry">
                        <mxRectangle width="112" height="40" as="alternateBounds"/>
                    </mxGeometry>
                </mxCell>
                <mxCell id="65" style="shape=partialRectangle;html=1;whiteSpace=wrap;connectable=0;fillColor=none;top=0;left=0;bottom=0;right=0;overflow=hidden;pointerEvents=1;fontSize=13;strokeColor=default;strokeWidth=2;" vertex="1" parent="60">
                    <mxGeometry x="448" width="112" height="40" as="geometry">
                        <mxRectangle width="112" height="40" as="alternateBounds"/>
                    </mxGeometry>
                </mxCell>
                <mxCell id="113" value="      Add to Your Job Board" style="swimlane;swimlaneFillColor=default;align=left;fontSize=13;startSize=50;" vertex="1" parent="1">
                    <mxGeometry x="130" y="770" width="560" height="300" as="geometry"/>
                </mxCell>
                <mxCell id="121" value="" style="whiteSpace=wrap;html=1;aspect=fixed;fontSize=11;strokeColor=default;strokeWidth=2;" vertex="1" parent="113">
                    <mxGeometry x="20" y="60" width="220" height="220" as="geometry"/>
                </mxCell>
                <mxCell id="122" value="Job Listing Description Here From The Muse" style="text;html=1;strokeColor=none;fillColor=none;align=left;verticalAlign=middle;whiteSpace=wrap;rounded=0;fontSize=11;" vertex="1" parent="113">
                    <mxGeometry x="30" y="70" width="150" height="30" as="geometry"/>
                </mxCell>
                <mxCell id="167" value="" style="shape=table;startSize=0;container=1;collapsible=0;childLayout=tableLayout;fontSize=11;strokeColor=none;strokeWidth=0;" vertex="1" parent="113">
                    <mxGeometry x="350" y="70" width="90" height="190" as="geometry"/>
                </mxCell>
                <mxCell id="168" value="" style="shape=partialRectangle;collapsible=0;dropTarget=0;pointerEvents=0;fillColor=none;top=0;left=0;bottom=0;right=0;points=[[0,0.5],[1,0.5]];portConstraint=eastwest;fontSize=11;strokeColor=default;strokeWidth=2;" vertex="1" parent="167">
                    <mxGeometry width="90" height="38" as="geometry"/>
                </mxCell>
                <mxCell id="169" value="Job Position:" style="shape=partialRectangle;html=1;whiteSpace=wrap;connectable=0;overflow=hidden;fillColor=none;top=0;left=0;bottom=0;right=0;pointerEvents=1;fontSize=11;strokeColor=default;strokeWidth=2;" vertex="1" parent="168">
                    <mxGeometry width="90" height="38" as="geometry">
                        <mxRectangle width="90" height="38" as="alternateBounds"/>
                    </mxGeometry>
                </mxCell>
                <mxCell id="170" value="" style="shape=partialRectangle;collapsible=0;dropTarget=0;pointerEvents=0;fillColor=none;top=0;left=0;bottom=0;right=0;points=[[0,0.5],[1,0.5]];portConstraint=eastwest;fontSize=11;strokeColor=default;strokeWidth=2;" vertex="1" parent="167">
                    <mxGeometry y="38" width="90" height="38" as="geometry"/>
                </mxCell>
                <mxCell id="171" value="Company:" style="shape=partialRectangle;html=1;whiteSpace=wrap;connectable=0;overflow=hidden;fillColor=none;top=0;left=0;bottom=0;right=0;pointerEvents=1;fontSize=11;strokeColor=default;strokeWidth=2;" vertex="1" parent="170">
                    <mxGeometry width="90" height="38" as="geometry">
                        <mxRectangle width="90" height="38" as="alternateBounds"/>
                    </mxGeometry>
                </mxCell>
                <mxCell id="172" value="" style="shape=partialRectangle;collapsible=0;dropTarget=0;pointerEvents=0;fillColor=none;top=0;left=0;bottom=0;right=0;points=[[0,0.5],[1,0.5]];portConstraint=eastwest;fontSize=11;strokeColor=default;strokeWidth=2;" vertex="1" parent="167">
                    <mxGeometry y="76" width="90" height="38" as="geometry"/>
                </mxCell>
                <mxCell id="173" value="Location:" style="shape=partialRectangle;html=1;whiteSpace=wrap;connectable=0;overflow=hidden;fillColor=none;top=0;left=0;bottom=0;right=0;pointerEvents=1;fontSize=11;strokeColor=default;strokeWidth=2;" vertex="1" parent="172">
                    <mxGeometry width="90" height="38" as="geometry">
                        <mxRectangle width="90" height="38" as="alternateBounds"/>
                    </mxGeometry>
                </mxCell>
                <mxCell id="174" value="" style="shape=partialRectangle;collapsible=0;dropTarget=0;pointerEvents=0;fillColor=none;top=0;left=0;bottom=0;right=0;points=[[0,0.5],[1,0.5]];portConstraint=eastwest;fontSize=11;strokeColor=default;strokeWidth=2;" vertex="1" parent="167">
                    <mxGeometry y="114" width="90" height="38" as="geometry"/>
                </mxCell>
                <mxCell id="175" value="Date Applied:" style="shape=partialRectangle;html=1;whiteSpace=wrap;connectable=0;overflow=hidden;fillColor=none;top=0;left=0;bottom=0;right=0;pointerEvents=1;fontSize=11;strokeColor=default;strokeWidth=2;" vertex="1" parent="174">
                    <mxGeometry width="90" height="38" as="geometry">
                        <mxRectangle width="90" height="38" as="alternateBounds"/>
                    </mxGeometry>
                </mxCell>
                <mxCell id="176" value="" style="shape=partialRectangle;collapsible=0;dropTarget=0;pointerEvents=0;fillColor=none;top=0;left=0;bottom=0;right=0;points=[[0,0.5],[1,0.5]];portConstraint=eastwest;fontSize=11;strokeColor=default;strokeWidth=2;" vertex="1" parent="167">
                    <mxGeometry y="152" width="90" height="38" as="geometry"/>
                </mxCell>
                <mxCell id="177" value="Notes:" style="shape=partialRectangle;html=1;whiteSpace=wrap;connectable=0;overflow=hidden;fillColor=none;top=0;left=0;bottom=0;right=0;pointerEvents=1;fontSize=11;strokeColor=default;strokeWidth=2;" vertex="1" parent="176">
                    <mxGeometry width="90" height="38" as="geometry">
                        <mxRectangle width="90" height="38" as="alternateBounds"/>
                    </mxGeometry>
                </mxCell>
                <mxCell id="190" value="" style="shape=table;startSize=0;container=1;collapsible=0;childLayout=tableLayout;fontSize=11;strokeColor=default;strokeWidth=2;" vertex="1" parent="113">
                    <mxGeometry x="440" y="75" width="90" height="180" as="geometry"/>
                </mxCell>
                <mxCell id="191" value="" style="shape=partialRectangle;collapsible=0;dropTarget=0;pointerEvents=0;fillColor=none;top=0;left=0;bottom=0;right=0;points=[[0,0.5],[1,0.5]];portConstraint=eastwest;fontSize=11;strokeColor=default;strokeWidth=2;" vertex="1" parent="190">
                    <mxGeometry width="90" height="36" as="geometry"/>
                </mxCell>
                <mxCell id="192" value="" style="shape=partialRectangle;html=1;whiteSpace=wrap;connectable=0;overflow=hidden;fillColor=none;top=0;left=0;bottom=0;right=0;pointerEvents=1;fontSize=11;strokeColor=default;strokeWidth=2;" vertex="1" parent="191">
                    <mxGeometry width="90" height="36" as="geometry">
                        <mxRectangle width="90" height="36" as="alternateBounds"/>
                    </mxGeometry>
                </mxCell>
                <mxCell id="193" value="" style="shape=partialRectangle;collapsible=0;dropTarget=0;pointerEvents=0;fillColor=none;top=0;left=0;bottom=0;right=0;points=[[0,0.5],[1,0.5]];portConstraint=eastwest;fontSize=11;strokeColor=default;strokeWidth=2;" vertex="1" parent="190">
                    <mxGeometry y="36" width="90" height="36" as="geometry"/>
                </mxCell>
                <mxCell id="194" value="" style="shape=partialRectangle;html=1;whiteSpace=wrap;connectable=0;overflow=hidden;fillColor=none;top=0;left=0;bottom=0;right=0;pointerEvents=1;fontSize=11;strokeColor=default;strokeWidth=2;" vertex="1" parent="193">
                    <mxGeometry width="90" height="36" as="geometry">
                        <mxRectangle width="90" height="36" as="alternateBounds"/>
                    </mxGeometry>
                </mxCell>
                <mxCell id="195" value="" style="shape=partialRectangle;collapsible=0;dropTarget=0;pointerEvents=0;fillColor=none;top=0;left=0;bottom=0;right=0;points=[[0,0.5],[1,0.5]];portConstraint=eastwest;fontSize=11;strokeColor=default;strokeWidth=2;" vertex="1" parent="190">
                    <mxGeometry y="72" width="90" height="36" as="geometry"/>
                </mxCell>
                <mxCell id="196" value="" style="shape=partialRectangle;html=1;whiteSpace=wrap;connectable=0;overflow=hidden;fillColor=none;top=0;left=0;bottom=0;right=0;pointerEvents=1;fontSize=11;strokeColor=default;strokeWidth=2;" vertex="1" parent="195">
                    <mxGeometry width="90" height="36" as="geometry">
                        <mxRectangle width="90" height="36" as="alternateBounds"/>
                    </mxGeometry>
                </mxCell>
                <mxCell id="197" value="" style="shape=partialRectangle;collapsible=0;dropTarget=0;pointerEvents=0;fillColor=none;top=0;left=0;bottom=0;right=0;points=[[0,0.5],[1,0.5]];portConstraint=eastwest;fontSize=11;strokeColor=default;strokeWidth=2;" vertex="1" parent="190">
                    <mxGeometry y="108" width="90" height="36" as="geometry"/>
                </mxCell>
                <mxCell id="198" value="" style="shape=partialRectangle;html=1;whiteSpace=wrap;connectable=0;overflow=hidden;fillColor=none;top=0;left=0;bottom=0;right=0;pointerEvents=1;fontSize=11;strokeColor=default;strokeWidth=2;" vertex="1" parent="197">
                    <mxGeometry width="90" height="36" as="geometry">
                        <mxRectangle width="90" height="36" as="alternateBounds"/>
                    </mxGeometry>
                </mxCell>
                <mxCell id="199" value="" style="shape=partialRectangle;collapsible=0;dropTarget=0;pointerEvents=0;fillColor=none;top=0;left=0;bottom=0;right=0;points=[[0,0.5],[1,0.5]];portConstraint=eastwest;fontSize=11;strokeColor=default;strokeWidth=2;" vertex="1" parent="190">
                    <mxGeometry y="144" width="90" height="36" as="geometry"/>
                </mxCell>
                <mxCell id="200" value="" style="shape=partialRectangle;html=1;whiteSpace=wrap;connectable=0;overflow=hidden;fillColor=none;top=0;left=0;bottom=0;right=0;pointerEvents=1;fontSize=11;strokeColor=default;strokeWidth=2;" vertex="1" parent="199">
                    <mxGeometry width="90" height="36" as="geometry">
                        <mxRectangle width="90" height="36" as="alternateBounds"/>
                    </mxGeometry>
                </mxCell>
                <mxCell id="201" value="Submit to Add to Job Board" style="text;html=1;strokeColor=default;fillColor=none;align=center;verticalAlign=middle;whiteSpace=wrap;rounded=0;fontSize=12;strokeWidth=2;" vertex="1" parent="113">
                    <mxGeometry x="430" y="260" width="110" height="30" as="geometry"/>
                </mxCell>
                <mxCell id="202" value="&lt;u style=&quot;font-size: 10px;&quot;&gt;Go back to search board&lt;/u&gt;" style="text;html=1;strokeColor=default;fillColor=none;align=center;verticalAlign=middle;whiteSpace=wrap;rounded=0;fontSize=10;strokeWidth=2;" vertex="1" parent="113">
                    <mxGeometry x="260" y="10" width="120" height="30" as="geometry"/>
                </mxCell>
                <mxCell id="203" value="&lt;u&gt;Go to your job board&lt;/u&gt;" style="text;html=1;strokeColor=default;fillColor=none;align=center;verticalAlign=middle;whiteSpace=wrap;rounded=0;fontSize=10;strokeWidth=2;" vertex="1" parent="113">
                    <mxGeometry x="410" y="10" width="120" height="30" as="geometry"/>
                </mxCell>
            </root>
        </mxGraphModel>
    </diagram>
</mxfile>